<?xml version="1.0" encoding="utf-8"?>
<!-- Generator: Adobe Illustrator 22.0.1, SVG Export Plug-In . SVG Version: 6.00 Build 0)  -->
<svg version="1.1" id="Layer_1" xmlns="http://www.w3.org/2000/svg" xmlns:xlink="http://www.w3.org/1999/xlink" x="0px" y="0px"
	 viewBox="0 0 128.9 129.2" style="enable-background:new 0 0 128.9 129.2;" xml:space="preserve">
<style type="text/css">
	.st0{fill:#1976D2;}
</style>
<g>
	<g>
		<g>
			<g>
				<path class="st0" d="M11.6,49c-0.1,0-0.2-0.1-0.2-0.1c-0.1-0.1-0.1-0.2,0-0.3L32,12.4c0.1-0.1,0.2-0.1,0.3-0.1s0.2,0.1,0.2,0.2
					L35,47.4c0,0.1,0,0.1-0.1,0.2c0,0.1-0.1,0.1-0.2,0.1L11.6,49L11.6,49z M32,13.5l-19.9,35l22.3-1.2L32,13.5z"/>
			</g>
			<g>
				<path class="st0" d="M34.6,47.8L34.6,47.8c-0.1-0.1-0.2-0.2-0.2-0.3l-2.5-34.9c0-0.1,0.1-0.2,0.2-0.3c0.1,0,0.2,0,0.3,0.1
					l18.7,18.4c0.1,0.1,0.1,0.3,0,0.4L34.8,47.7C34.8,47.8,34.7,47.8,34.6,47.8z M32.5,13.3L34.9,47l15.7-15.9L32.5,13.3z"/>
			</g>
			<g>
				<path class="st0" d="M51.9,62C51.8,62,51.8,62,51.9,62L34.5,47.7c-0.1,0-0.1-0.1-0.1-0.2s0-0.1,0.1-0.2l16.2-16.5
					c0.1-0.1,0.2-0.1,0.3-0.1c0.1,0,0.2,0.1,0.2,0.2l1,30.7c0,0.1-0.1,0.2-0.1,0.2C52,62,51.9,62,51.9,62z M35,47.5l16.6,13.7
					l-1-29.5L35,47.5z"/>
			</g>
			<g>
				<path class="st0" d="M45.4,68.1L45.4,68.1c-0.1,0-0.2-0.1-0.2-0.1L34.4,47.6c-0.1-0.1,0-0.2,0.1-0.3c0.1-0.1,0.2-0.1,0.3,0
					L52,61.5c0.1,0,0.1,0.1,0.1,0.2s0,0.1-0.1,0.2L45.6,68C45.6,68.1,45.5,68.1,45.4,68.1z M35.5,48.6l10,18.9l6-5.7L35.5,48.6z"/>
			</g>
			<g>
				<path class="st0" d="M105.5,40.5c-0.1,0-0.1,0-0.2-0.1L91.8,25.1c-0.1-0.1-0.1-0.1-0.1-0.2c0-0.1,0.1-0.1,0.1-0.2l13.4-8.5
					c0.1-0.1,0.2-0.1,0.3,0c0.1,0,0.1,0.1,0.1,0.2v23.8C105.6,40.3,105.5,40.4,105.5,40.5C105.6,40.5,105.5,40.5,105.5,40.5z
					 M92.4,25l12.8,14.5V16.8L92.4,25z"/>
			</g>
			<g>
				<path class="st0" d="M70,32.6L70,32.6c-0.1,0-0.2-0.1-0.2-0.2l-6.7-16.1c0-0.1,0-0.2,0.1-0.3c0.1-0.1,0.2-0.1,0.3,0l16.8,7.9
					c0.1,0,0.1,0.1,0.1,0.2c0,0.1,0,0.2-0.1,0.2l-10.1,8.3C70.1,32.6,70.1,32.6,70,32.6z M63.8,16.8l6.4,15.1l9.5-7.7L63.8,16.8z"/>
			</g>
			<g>
				<path class="st0" d="M94.4,127.8c-0.1,0-0.1,0-0.2-0.1l-2.9-3.1c-0.1-0.1-0.1-0.2-0.1-0.3s0.1-0.2,0.2-0.2l8.4-1.1
					c0.1,0,0.3,0.1,0.3,0.2c0.4,2.1,0.6,3.4,0.6,3.4c0,0.1,0,0.1,0,0.2c0,0.1-0.1,0.1-0.2,0.1L94.4,127.8L94.4,127.8z M92,124.6
					l2.5,2.6l5.7-0.7c-0.1-0.5-0.3-1.5-0.5-2.9L92,124.6z"/>
			</g>
			<g>
				<path class="st0" d="M32.2,12.9C32.2,12.9,32.1,12.9,32.2,12.9l-3.8-1c-0.1,0-0.2-0.1-0.2-0.2c0-0.1,0-0.2,0.1-0.3
					c0.8-0.7,1.6-1.3,2.4-1.9c0.1,0,0.1-0.1,0.2,0c0.1,0,0.1,0.1,0.2,0.1l1.3,2.8c0,0.1,0,0.2,0,0.3C32.3,12.8,32.3,12.9,32.2,12.9z
					 M29,11.5l2.7,0.7l-1-2C30.1,10.6,29.5,11,29,11.5z"/>
			</g>
			<g>
				<path class="st0" d="M105.5,40.5c-0.1,0-0.1,0-0.2-0.1c0,0-0.1-0.1-0.1-0.2V16.4c0-0.1,0.1-0.2,0.2-0.2c0.1,0,0.2,0,0.3,0.1
					l16.6,19c0,0,0,0.1,0.1,0.1c0.1,0.4,0.2,0.8,0.2,1.1c0.1,0.7,0.1,1.4,0,2.2c0.5,0.4,1,0.8,1.4,1.3c0.1,0.1,0.1,0.2,0,0.3
					c0,0.1-0.1,0.1-0.2,0.2H105.5L105.5,40.5z M105.7,17.1V40l17.5-0.1c-0.3-0.3-0.7-0.6-1.1-0.9c-0.1-0.1-0.1-0.1-0.1-0.2
					c0.1-0.7,0.1-1.5,0-2.2c0-0.3-0.1-0.7-0.2-1L105.7,17.1z"/>
			</g>
			<g>
				<path class="st0" d="M44.2,79.8L44.2,79.8l-7-0.9c-0.1,0-0.1,0-0.2-0.1c-1.3-1.9-2.3-3.9-2.9-6.1c0-0.1,0-0.3,0.1-0.3l11.2-4.8
					c0.1,0,0.2,0,0.3,0c0.1,0.1,0.1,0.1,0.1,0.2l-1.2,11.7c0,0.1,0,0.1-0.1,0.2C44.3,79.7,44.3,79.8,44.2,79.8z M37.4,78.4l6.6,0.8
					l1.2-11l-10.5,4.5C35.3,74.7,36.2,76.6,37.4,78.4z"/>
			</g>
			<g>
				<path class="st0" d="M91.4,124.7C91.4,124.7,91.3,124.7,91.4,124.7c-0.2-0.1-0.2-0.2-0.2-0.3h0.2h-0.2c0-0.1,0-0.2,0.1-0.2
					c0.1-0.1,0.1-0.1,0.2-0.1h0.1c0.1,0,0.2,0.1,0.2,0.2c0,0.1,0,0.2-0.1,0.3l-0.1,0.1C91.5,124.7,91.5,124.7,91.4,124.7z"/>
			</g>
			<g>
				<path class="st0" d="M50.9,31.3c-0.1,0-0.1,0-0.2-0.1L32,12.8c-0.1-0.1-0.1-0.2,0-0.3c0.1-0.1,0.2-0.1,0.3-0.1l23.6,12
					c0.1,0,0.1,0.1,0.1,0.2c0,0.1,0,0.2,0,0.2l-4.9,6.4C51.1,31.2,51,31.3,50.9,31.3L50.9,31.3z M33.6,13.6l17.3,17l4.6-5.9
					L33.6,13.6z"/>
			</g>
			<g>
				<path class="st0" d="M50.9,31.3c-0.1,0-0.2-0.1-0.2-0.2s0-0.2,0-0.3l4.9-6.4c0.1-0.1,0.2-0.1,0.3-0.1L70.1,32
					c0.1,0.1,0.2,0.2,0.1,0.3c0,0.1-0.1,0.2-0.3,0.2L50.9,31.3L50.9,31.3z M55.9,24.9l-4.5,5.9L68.9,32L55.9,24.9z"/>
			</g>
			<g>
				<path class="st0" d="M55.8,24.9C55.8,24.9,55.7,24.8,55.8,24.9c-0.2-0.1-0.3-0.2-0.2-0.3l1.8-12.1c0-0.1,0.1-0.2,0.2-0.2
					s0.2,0,0.2,0l5.6,3.7c0.1,0,0.1,0.1,0.1,0.2c0,0.1,0,0.2-0.1,0.2l-7.5,8.3C56,24.8,55.9,24.9,55.8,24.9z M57.9,13l-1.6,10.8
					l6.7-7.5L57.9,13z"/>
			</g>
			<g>
				<path class="st0" d="M70,32.6L70,32.6l-14.3-7.7c-0.1,0-0.1-0.1-0.1-0.2c0-0.1,0-0.2,0.1-0.2l7.5-8.3c0.1-0.1,0.1-0.1,0.2-0.1
					s0.2,0.1,0.2,0.2l6.7,16.1c0,0.1,0,0.2-0.1,0.3C70.2,32.6,70.1,32.6,70,32.6z M56.2,24.5l13.3,7.2l-6.3-15L56.2,24.5z"/>
			</g>
			<g>
				<path class="st0" d="M49.8,87.4C49.8,87.4,49.7,87.4,49.8,87.4c-0.4-0.1-0.9-0.2-1.3-0.3c-0.1,0-0.1-0.1-0.1-0.1l-4.3-7.3
					c-0.1-0.1,0-0.2,0-0.3c0.1-0.1,0.2-0.1,0.3-0.1l8.4,2.7c0.1,0,0.1,0.1,0.2,0.2c0,0.1,0,0.2,0,0.2l-2.9,4.9
					C50,87.4,49.9,87.4,49.8,87.4z M48.8,86.6c0.3,0.1,0.6,0.2,0.9,0.2l2.6-4.4L44.8,80L48.8,86.6z"/>
			</g>
			<g>
				<path class="st0" d="M125,47.9L125,47.9l-19.6-7.4c-0.1,0-0.2-0.2-0.2-0.3c0-0.1,0.1-0.2,0.3-0.2l18.3-0.1c0.1,0,0.2,0,0.2,0.1
					c0.9,1.1,1.4,2.3,1.6,3.7c0.1,0.7,0.1,1.4-0.1,2.1c0,0.1,0.1,0.1,0,0.2l-0.3,1.8C125.2,47.9,125.1,47.9,125,47.9
					C125.1,47.9,125.1,47.9,125,47.9z M106.9,40.5l17.9,6.8l0.2-1.4c0-0.1-0.1-0.1-0.1-0.2c0.1-0.7,0.2-1.4,0.1-2.1
					c-0.1-1.2-0.6-2.4-1.4-3.3L106.9,40.5z"/>
			</g>
			<g>
				<path class="st0" d="M126.5,49.4c-0.1,0-0.1,0-0.2-0.1l-1.5-1.5c-0.1-0.1-0.1-0.1-0.1-0.2l0.3-1.8c0-0.1,0.1-0.2,0.2-0.2
					c0.1,0,0.2,0,0.3,0c0.4,0.3,0.8,0.7,1.2,1.1c0,0,0.1,0.1,0.1,0.2l0.1,2.2c0,0.1-0.1,0.2-0.2,0.2
					C126.6,49.4,126.5,49.4,126.5,49.4z M125.3,47.6l0.9,0.9V47c-0.2-0.2-0.4-0.4-0.7-0.6L125.3,47.6z"/>
			</g>
			<g>
				<path class="st0" d="M9.6,67.9c-0.1,0-0.1,0-0.2-0.1L0.9,57.2c0,0,0-0.1-0.1-0.1v-0.2c0-0.1,0-0.2,0-0.3c-0.2-2-0.2-4,0.2-6
					c0-0.1,0.1-0.2,0.2-0.2l10.3-1.9c0.1,0,0.2,0,0.2,0.1c0.1,0.1,0.1,0.1,0.1,0.2l-2,18.9C9.8,67.8,9.8,67.9,9.6,67.9L9.6,67.9z
					 M1.4,56.9l8,10.1l1.9-17.9l-9.8,1.8c-0.3,1.9-0.4,3.8-0.2,5.7C1.3,56.6,1.3,56.7,1.4,56.9L1.4,56.9z"/>
			</g>
			<g>
				<path class="st0" d="M91.4,128.1c-0.1,0-0.1,0-0.2-0.1c-0.1-0.1-0.1-0.1-0.1-0.2c0-1.1,0-2.2,0-3.4c0-0.1,0-0.2,0.1-0.2l0.1-0.1
					c0.1,0,0.1-0.1,0.2,0c0.1,0,0.1,0.1,0.2,0.1l1.5,3.2c0,0.1,0,0.2,0,0.2c0,0.1-0.1,0.1-0.2,0.1L91.4,128.1L91.4,128.1z
					 M91.7,125.5c0,0.7,0,1.4,0,2.1l0.9-0.1L91.7,125.5z"/>
			</g>
			<g>
				<path class="st0" d="M92.9,127.9c-0.1,0-0.2-0.1-0.2-0.2l-1.5-3.2c-0.1-0.1,0-0.3,0.1-0.3c0.1-0.1,0.2-0.1,0.3,0l2.9,3.1
					c0.1,0.1,0.1,0.2,0.1,0.3s-0.1,0.2-0.2,0.2L92.9,127.9C93,127.9,93,127.9,92.9,127.9z M92.4,125.7l0.7,1.7l0.7-0.1L92.4,125.7z"
					/>
			</g>
			<g>
				<path class="st0" d="M126.5,49.4h-0.1c-0.1,0-0.1-0.1-0.1-0.2l-0.1-2.2c0-0.1,0.1-0.2,0.2-0.2c0.1,0,0.2,0,0.3,0.1
					c0.5,0.5,0.9,1.1,1.1,1.7c0.1,0.1,0,0.3-0.1,0.3l-1,0.6C126.6,49.4,126.5,49.4,126.5,49.4z M126.7,47.7v1l0.4-0.2
					C127.1,48.2,126.9,47.9,126.7,47.7z"/>
			</g>
			<g>
				<path class="st0" d="M55.8,24.9C55.8,24.9,55.7,24.8,55.8,24.9l-23.7-12c-0.1,0-0.2-0.1-0.1-0.3c0-0.1,0.1-0.2,0.2-0.2l18.2-5.7
					c0.1,0,0.1,0,0.2,0s0.1,0.1,0.1,0.2l5.5,17.7c0,0.1,0,0.2-0.1,0.3C55.9,24.8,55.9,24.9,55.8,24.9z M32.9,12.7l22.5,11.4
					L50.2,7.2L32.9,12.7z"/>
			</g>
			<g>
				<path class="st0" d="M55.8,24.9c-0.1,0-0.2-0.1-0.2-0.2L50.1,7c0-0.1,0-0.2,0.1-0.3s0.2-0.1,0.3,0l7.3,5.6
					c0.1,0.1,0.1,0.2,0.1,0.2l-1.8,12.1C56.1,24.8,56,24.9,55.8,24.9L55.8,24.9z M50.8,7.6l4.9,15.8l1.7-10.7L50.8,7.6z"/>
			</g>
			<g>
				<path class="st0" d="M44.2,79.8c-0.1,0-0.1,0-0.2-0.1s-0.1-0.1-0.1-0.2l1.2-11.7c0-0.1,0.1-0.2,0.2-0.2s0.2,0,0.3,0l11.1,8.9
					c0.1,0.1,0.1,0.2,0.1,0.3c0,0.1-0.1,0.2-0.2,0.2L44.2,79.8C44.3,79.8,44.2,79.8,44.2,79.8z M45.7,68.3l-1.1,10.8L56,76.6
					L45.7,68.3z"/>
			</g>
			<g>
				<path class="st0" d="M52.6,82.5L52.6,82.5l-8.5-2.8c-0.1,0-0.2-0.1-0.2-0.3c0-0.1,0.1-0.2,0.2-0.2l12.3-2.7c0.1,0,0.2,0,0.3,0.1
					c0.1,0.1,0.1,0.2,0,0.3l-3.9,5.5C52.8,82.5,52.7,82.5,52.6,82.5z M45.2,79.5l7.3,2.4l3.4-4.8L45.2,79.5z"/>
			</g>
			<g>
				<path class="st0" d="M56.5,77C56.4,77,56.4,77,56.5,77l-11.2-9c-0.1,0-0.1-0.1-0.1-0.2s0-0.1,0.1-0.2l6.4-6.1
					c0.1-0.1,0.2-0.1,0.2-0.1c0.1,0,0.2,0.1,0.2,0.2l4.7,15c0,0.1,0,0.2-0.1,0.3C56.7,77,56.6,77,56.5,77z M45.9,67.8L56.1,76
					l-4.3-13.8L45.9,67.8z"/>
			</g>
			<g>
				<path class="st0" d="M56.5,77c-0.1,0-0.2-0.1-0.2-0.2l-4.7-15c0-0.1,0-0.2,0.1-0.3c0.1-0.1,0.2-0.1,0.3,0l28.2,12.3
					c0.1,0,0.2,0.2,0.2,0.3c0,0.1-0.1,0.2-0.2,0.2L56.5,77C56.6,77,56.6,77,56.5,77z M52.3,62.2l4.4,14.3l22.4-2.6L52.3,62.2z"/>
			</g>
			<g>
				<path class="st0" d="M11.6,49C11.6,49,11.5,49,11.6,49l-8.4-3.9c-0.1,0-0.1-0.1-0.1-0.2s0-0.1,0-0.2c0.4-0.6,0.7-1.3,1.1-1.8
					c0.2-6.1,3.3-11.8,8.3-15.4c0.8-3.1,2.5-6.1,4.7-8.4c0,0,0.1,0,0.1-0.1l14.8-6.7c0.1,0,0.2,0,0.3,0.1s0.1,0.2,0,0.3L11.8,48.9
					C11.8,49,11.7,49,11.6,49z M3.7,44.8l7.8,3.6l20.1-35.2l-14,6.3c-2.2,2.3-3.8,5.2-4.6,8.3c0,0.1-0.1,0.1-0.1,0.1
					C8,31.4,4.9,37,4.7,43c0,0.1,0,0.1,0,0.1C4.3,43.7,4,44.2,3.7,44.8z"/>
			</g>
			<g>
				<path class="st0" d="M1.2,50.9c-0.1,0-0.1,0-0.2-0.1s-0.1-0.1-0.1-0.2c0.4-2,1.1-4,2.1-5.8c0.1-0.1,0.2-0.2,0.3-0.1l8.3,3.8
					c0.1,0,0.2,0.2,0.1,0.3c0,0.1-0.1,0.2-0.2,0.2L1.2,50.9C1.3,50.9,1.3,50.9,1.2,50.9z M3.4,45.2c-0.8,1.6-1.5,3.3-1.8,5.1
					l9.2-1.7L3.4,45.2z"/>
			</g>
			<g>
				<path class="st0" d="M100.8,96.3c-0.1,0-0.1,0-0.2-0.1L84.5,74.1c-0.1-0.1-0.1-0.2,0-0.3c0-0.1,0.1-0.1,0.2-0.2l7.5-1.2
					c0.1,0,0.2,0.1,0.3,0.2l8.6,23.3c0,0.1,0,0.3-0.1,0.3C100.9,96.3,100.9,96.3,100.8,96.3z M85.3,74.1L100,94.4L92.2,73L85.3,74.1
					z"/>
			</g>
			<g>
				<path class="st0" d="M100.8,96.3c-0.1,0-0.2-0.1-0.2-0.2L92,72.8c0-0.1,0-0.2,0.1-0.3c0.1-0.1,0.2-0.1,0.3-0.1l8.1,2.5
					c0.1,0,0.2,0.1,0.2,0.2l0.5,20.9C101.1,96.2,101,96.3,100.8,96.3C100.9,96.3,100.8,96.3,100.8,96.3z M92.7,73.1l7.8,21.4
					L100,75.4L92.7,73.1z"/>
			</g>
			<g>
				<path class="st0" d="M57.6,12.8C57.6,12.8,57.5,12.8,57.6,12.8l-7.4-5.7C50.1,7,50.1,7,50.1,6.9c0-0.1,0.1-0.2,0.1-0.2l9.7-5.8
					H60h0.1c0.1,0,0.2,0,0.3,0c1.7-0.2,3.4,0,5,0.5c0.1,0,0.1,0.1,0.2,0.2c0,0.1,0,0.2,0,0.2l-7.7,11C57.8,12.7,57.8,12.8,57.6,12.8
					C57.7,12.8,57.7,12.8,57.6,12.8z M50.8,6.9l6.8,5.2l7.3-10.5c-1.4-0.4-3-0.5-4.5-0.4c-0.1,0-0.2,0-0.3,0H60L50.8,6.9z"/>
			</g>
			<g>
				<path class="st0" d="M52.9,87.9L52.9,87.9c-1.1-0.1-2.1-0.2-3.1-0.5c-0.1,0-0.1-0.1-0.2-0.2c0-0.1,0-0.2,0-0.2l2.9-4.9
					c0-0.1,0.1-0.1,0.2-0.1s0.2,0,0.2,0.1l4.8,5.2c0.1,0.1,0.1,0.2,0.1,0.3c0,0.1-0.1,0.2-0.2,0.2h-0.1c-0.1,0-0.2,0-0.3,0
					C55.7,88,54.3,88,52.9,87.9z M50.2,87c2.2,0.5,4.5,0.6,6.8,0.3l-4.3-4.6L50.2,87z"/>
			</g>
			<g>
				<path class="st0" d="M57.5,87.7c-0.1,0-0.1,0-0.2-0.1l-4.8-5.2c-0.1-0.1-0.1-0.2,0-0.3l3.9-5.5c0-0.1,0.1-0.1,0.2-0.1
					s0.2,0,0.2,0.1l5.9,9.4c0,0.1,0.1,0.1,0,0.2c0,0.1-0.1,0.1-0.2,0.2C61,87,59.3,87.5,57.5,87.7L57.5,87.7z M53,82.2l4.6,5
					c1.6-0.2,3.1-0.6,4.5-1.2l-5.6-8.8L53,82.2z"/>
			</g>
			<g>
				<path class="st0" d="M78.4,88.4C78.4,88.4,78.3,88.4,78.4,88.4c-3.6-1.4-6.4-4.1-7.8-7.6c-2.2,2.5-4.9,4.4-8,5.6
					c-0.1,0-0.3,0-0.3-0.1l-5.9-9.4c0-0.1-0.1-0.2,0-0.3c0-0.1,0.1-0.1,0.2-0.1l23.5-2.8c0.1,0,0.2,0,0.2,0.1
					c0.1,0.1,0.1,0.1,0.1,0.2l-1.7,14.1c0,0.1-0.1,0.2-0.1,0.2C78.5,88.4,78.4,88.4,78.4,88.4z M70.7,80L70.7,80
					c0.1,0,0.2,0.1,0.2,0.2c1.2,3.4,3.9,6.2,7.3,7.6l1.6-13.5L57,77l5.6,8.9c3-1.3,5.7-3.2,7.8-5.7C70.5,80,70.6,80,70.7,80z"/>
			</g>
			<g>
				<path class="st0" d="M91.5,124.7L91.5,124.7L91.5,124.7c-0.2,0-0.3-0.1-0.3-0.3c0-0.1,0.1-0.2,0.2-0.3c0.1,0,0.2,0,0.3,0
					l0.1,0.1c0.1,0.1,0.1,0.2,0,0.3C91.7,124.6,91.6,124.7,91.5,124.7z"/>
			</g>
			<g>
				<path class="st0" d="M80.5,90.5c-0.1,0-0.2-0.1-0.2-0.1c-0.3-0.5-0.5-1.1-0.7-1.5c-0.5-0.1-0.9-0.3-1.4-0.4
					c-0.1,0-0.2-0.2-0.2-0.3l1.7-14.1c0-0.1,0.1-0.2,0.3-0.2l4.7-0.1c0.1,0,0.2,0,0.2,0.1c0.1,0.1,0.1,0.1,0,0.2l-4.2,16.3
					C80.8,90.4,80.7,90.5,80.5,90.5C80.6,90.5,80.6,90.5,80.5,90.5z M78.7,88c0.4,0.2,0.8,0.3,1.3,0.4c0.1,0,0.2,0.1,0.2,0.2
					c0.1,0.3,0.2,0.6,0.4,1l4-15.3l-4.1,0.1L78.7,88z"/>
			</g>
			<g>
				<path class="st0" d="M102.2,44.4L102.2,44.4c-0.1,0-0.2-0.1-0.2-0.1L91.8,25.1c-0.1-0.1,0-0.3,0.1-0.3c0.1-0.1,0.3-0.1,0.3,0
					l13.5,15.3c0.1,0.1,0.1,0.2,0,0.3l-3.3,4C102.4,44.4,102.3,44.4,102.2,44.4z M93.3,26.7l9,16.9l2.9-3.5L93.3,26.7z"/>
			</g>
			<g>
				<path class="st0" d="M109.3,97L109.3,97l-8.5-0.7c-0.1,0-0.2-0.1-0.2-0.3l-0.5-20.9c0-0.1,0.1-0.2,0.2-0.3c0.1,0,0.2,0,0.3,0.1
					l12.7,19.5c0.1,0.1,0,0.3-0.1,0.3c-1.1,0.9-2.4,1.6-3.8,2.1C109.4,97,109.3,97,109.3,97z M101.1,95.8l8.2,0.7
					c1.2-0.4,2.3-1,3.4-1.8l-12-18.6L101.1,95.8z"/>
			</g>
			<g>
				<path class="st0" d="M113,95L113,95c-0.1,0-0.2-0.1-0.2-0.1l-12.7-19.5c0-0.1-0.1-0.1,0-0.2c0-0.1,0.1-0.1,0.1-0.2l8.7-4.3
					c0.1,0,0.2,0,0.2,0c0.1,0,0.1,0.1,0.1,0.2l4.8,23c0,0.1,0,0.2-0.1,0.2c-0.3,0.3-0.6,0.5-0.9,0.8C113.1,95,113.1,95,113,95z
					 M100.7,75.3L113,94.4c0.2-0.2,0.4-0.3,0.6-0.5l-4.7-22.6L100.7,75.3z"/>
			</g>
			<g>
				<path class="st0" d="M113.9,94.2L113.9,94.2c-0.1,0-0.2-0.1-0.2-0.2l-4.8-23c0-0.1,0-0.2,0.1-0.2c0.1-0.1,0.1-0.1,0.2-0.1
					l14.9,0.9c0.1,0,0.2,0,0.2,0.1s0.1,0.2,0,0.2l-4.7,12.8c0,0.1-0.1,0.1-0.1,0.1c-0.2,0.1-0.5,0.3-0.8,0.4
					c-0.1,0.1-0.2,0.1-0.3,0.1c-0.2,3.4-1.7,6.5-4.2,8.8C114,94.2,114,94.2,113.9,94.2z M109.4,71.2l4.7,22.2
					c2.2-2.2,3.5-5.2,3.7-8.3c0-0.1,0.1-0.2,0.2-0.2h0.1c0.1-0.1,0.2-0.1,0.4-0.2s0.4-0.2,0.7-0.3l4.5-12.3L109.4,71.2z"/>
			</g>
			<g>
				<path class="st0" d="M119.2,84.8c-0.1,0-0.1,0-0.1-0.1c-0.1-0.1-0.1-0.2-0.1-0.3l4.7-12.8c0-0.1,0.1-0.2,0.3-0.2
					c0.1,0,0.2,0.1,0.2,0.2l1.4,5v0.1c-1,3.4-3.2,6.2-6.2,7.9C119.4,84.8,119.3,84.8,119.2,84.8z M123.9,72.6l-4.2,11.3
					c2.6-1.7,4.5-4.2,5.4-7.2L123.9,72.6z"/>
			</g>
			<g>
				<path class="st0" d="M51.9,62C51.9,62,51.8,62,51.9,62c-0.2,0-0.2-0.1-0.2-0.3l-1-30.7c0-0.1,0-0.2,0.1-0.2s0.2,0,0.3,0
					l15.8,9.8c0.1,0,0.1,0.1,0.1,0.2s0,0.1,0,0.2L52.1,61.9C52.1,62,52,62,51.9,62z M51.2,31.5l1,29.5l14.3-20L51.2,31.5z"/>
			</g>
			<g>
				<path class="st0" d="M66.8,41.1L66.8,41.1l-16-9.8c-0.1-0.1-0.1-0.2-0.1-0.3c0-0.1,0.1-0.2,0.3-0.2l19.1,1.3
					c0.1,0,0.2,0,0.2,0.1s0.1,0.2,0,0.2l-3.2,8.5c0,0.1-0.1,0.1-0.2,0.2C66.9,41.1,66.8,41.1,66.8,41.1z M51.9,31.4l14.7,9.1l3-7.9
					L51.9,31.4z"/>
			</g>
			<g>
				<path class="st0" d="M51.9,62c-0.1,0-0.1,0-0.2-0.1s-0.1-0.2,0-0.3l14.9-20.9c0.1-0.1,0.2-0.1,0.3-0.1L84.3,48
					c0.1,0,0.2,0.1,0.2,0.2s-0.1,0.2-0.2,0.2L51.9,62L51.9,62z M66.9,41.2l-14.3,20l30.9-12.9L66.9,41.2z"/>
			</g>
			<g>
				<path class="st0" d="M80.1,74.3C80,74.3,80,74.3,80.1,74.3L51.8,62c-0.1,0-0.2-0.1-0.2-0.2s0.1-0.2,0.2-0.2l32.3-13.5
					c0.1,0,0.2,0,0.3,0c0.1,0.1,0.1,0.2,0.1,0.2l-4.1,25.8c0,0.1-0.1,0.1-0.1,0.2C80.2,74.3,80.1,74.3,80.1,74.3z M52.6,61.7
					l27.3,11.9l4-25L52.6,61.7z"/>
			</g>
			<g>
				<path class="st0" d="M84.2,48.5C84.2,48.5,84.1,48.5,84.2,48.5l-17.5-7.4c-0.1-0.1-0.2-0.2-0.1-0.3l3.2-8.5
					c0-0.1,0.1-0.1,0.2-0.2c0.1,0,0.2,0,0.2,0.1L84.4,48c0.1,0.1,0.1,0.2,0,0.3C84.4,48.4,84.3,48.5,84.2,48.5z M67.1,40.7l16.1,6.8
					L70.1,32.8L67.1,40.7z"/>
			</g>
			<g>
				<path class="st0" d="M84.2,48.5c-0.1,0-0.1,0-0.2-0.1L69.8,32.5c0-0.1-0.1-0.1-0.1-0.2s0-0.1,0.1-0.2l10.1-8.2
					c0.1-0.1,0.2-0.1,0.3,0c0.1,0,0.2,0.1,0.2,0.2l4.1,24c0,0.1,0,0.2-0.1,0.3C84.3,48.5,84.2,48.5,84.2,48.5z M70.4,32.4l13.4,15
					l-3.9-22.7L70.4,32.4z"/>
			</g>
			<g>
				<path class="st0" d="M80.1,74.3c-0.1,0-0.1,0-0.2-0.1c0-0.1-0.1-0.1-0.1-0.2l4.1-25.8c0-0.1,0.1-0.2,0.3-0.2l0,0
					c0.1,0,0.2,0.1,0.2,0.3L85,74c0,0.1,0,0.1-0.1,0.2c0,0-0.1,0.1-0.2,0.1L80.1,74.3L80.1,74.3z M84,51.1l-3.6,22.6l4.1-0.1
					L84,51.1z"/>
			</g>
			<g>
				<path class="st0" d="M84.8,74.2C84.7,74.2,84.7,74.2,84.8,74.2c-0.2-0.1-0.2-0.2-0.2-0.3L84,48.2c0-0.1,0.1-0.2,0.2-0.3
					c0.1,0,0.3,0.1,0.3,0.2l8.1,24.5c0,0.1,0,0.2,0,0.2c0,0.1-0.1,0.1-0.2,0.1L84.8,74.2L84.8,74.2z M84.5,50L85,73.7l6.9-1.1
					L84.5,50z"/>
			</g>
			<g>
				<path class="st0" d="M84.2,48.5c-0.1,0-0.2-0.1-0.2-0.2l-4.1-24c0-0.1,0-0.2,0.1-0.2c0.1-0.1,0.1-0.1,0.2-0.1l11.9,0.7
					c0.1,0,0.2,0,0.2,0.1s0.1,0.2,0,0.2l-7.8,23.3C84.4,48.4,84.3,48.5,84.2,48.5z M80.4,24.5l3.9,22.7l7.4-22L80.4,24.5z"/>
			</g>
			<g>
				<path class="st0" d="M84.2,48.5c-0.1,0-0.1,0-0.2-0.1s-0.1-0.2-0.1-0.3l7.8-23.3c0-0.1,0.1-0.2,0.2-0.2s0.2,0,0.3,0.1l10.2,19.2
					c0,0.1,0,0.2,0,0.2c0,0.1-0.1,0.1-0.2,0.1L84.2,48.5L84.2,48.5z M92.1,25.6l-7.5,22.3l17.2-3.9L92.1,25.6z"/>
			</g>
			<g>
				<path class="st0" d="M32.2,12.9L32.2,12.9c-0.1,0-0.2-0.1-0.2-0.1L30.7,10c-0.1-0.1,0-0.3,0.1-0.3c1.9-1.2,3.9-2,6-2.5
					c0.1,0,0.2,0,0.3,0.1c0.1,0.1,0,0.2,0,0.3l-4.7,5.2C32.3,12.8,32.3,12.9,32.2,12.9z M31.2,9.9l1.1,2.2l3.8-4.4
					C34.3,8.2,32.7,8.9,31.2,9.9z"/>
			</g>
			<g>
				<path class="st0" d="M32.2,12.9c-0.1,0-0.2,0-0.2-0.1c-0.1-0.1-0.1-0.2,0-0.3l4.6-5.3l0.1-0.1c0.7-0.2,1.4-0.3,2.1-0.4
					c0.4,0,0.8-0.1,1.1-0.1c2.7-2,5.9-3.3,9.3-3.7c0.5-0.1,1-0.1,1.4-0.1c0.1,0,0.1,0,0.2,0.1s0.1,0.1,0.1,0.2L50.5,7
					c0,0.1-0.1,0.2-0.2,0.2L32.2,12.9L32.2,12.9z M36.9,7.5L33,12.1l17.1-5.4l0.4-3.4c-0.4,0-0.7,0.1-1.1,0.1
					c-3.3,0.4-6.5,1.7-9.1,3.7c0,0-0.1,0-0.1,0.1c-0.4,0-0.8,0.1-1.2,0.1C38.3,7.3,37.6,7.4,36.9,7.5z"/>
			</g>
			<g>
				<path class="st0" d="M50.3,7.2L50.3,7.2c-0.2-0.1-0.2-0.1-0.2-0.2l0.4-3.9c0-0.1,0.1-0.2,0.2-0.2c1.3-0.1,2.7,0,4,0.2
					C56.2,2,58,1.2,59.9,0.9c0.1,0,0.2,0.1,0.3,0.2c0,0.1,0,0.2-0.1,0.3l-9.7,5.8C50.4,7.2,50.4,7.2,50.3,7.2z M51,3.3l-0.3,3.2
					l7.8-4.7c-1.3,0.4-2.5,1-3.5,1.8c-0.1,0-0.1,0.1-0.2,0C53.5,3.3,52.3,3.2,51,3.3z"/>
			</g>
			<g>
				<path class="st0" d="M18.2,74.1L18.2,74.1c-3.6-0.4-7-1.9-9.8-4.1c-0.1-0.1-0.1-0.2-0.1-0.3l1.1-2.2c0.1-0.1,0.2-0.2,0.3-0.1
					l12.8,5.8c0.1,0,0.2,0.2,0.1,0.3c0,0.1-0.1,0.2-0.2,0.2L18.2,74.1L18.2,74.1z M8.8,69.8c2.7,2.1,6,3.4,9.4,3.8l3.2-0.3L9.7,68
					L8.8,69.8z"/>
			</g>
			<g>
				<path class="st0" d="M19,74.2L19,74.2c-0.3,0-0.5-0.1-0.8-0.1c-0.1,0-0.2-0.1-0.2-0.3c0-0.1,0.1-0.2,0.2-0.3l4.2-0.4
					c0.1,0,0.2,0,0.2,0.1c0.1,0.1,0.1,0.2,0,0.2l-0.2,0.5c0,0.1-0.1,0.2-0.2,0.2C21.2,74.3,20.1,74.3,19,74.2z"/>
			</g>
			<g>
				<path class="st0" d="M22.4,73.7L22.4,73.7L9.5,67.9c-0.1,0-0.2-0.2-0.2-0.3l2-18.9c0-0.1,0.1-0.2,0.2-0.2c0.1,0,0.2,0,0.3,0.2
					l10.8,24.7C22.6,73.5,22.6,73.6,22.4,73.7C22.6,73.7,22.5,73.7,22.4,73.7z M9.9,67.5L22,72.9L11.8,49.8L9.9,67.5z"/>
			</g>
			<g>
				<path class="st0" d="M22.4,73.7c-0.1,0-0.2-0.1-0.2-0.2L11.4,48.9c0-0.1,0-0.2,0-0.2c0-0.1,0.1-0.1,0.2-0.1l23.1-1.2
					c0.1,0,0.2,0,0.2,0.1c0.1,0.1,0.1,0.2,0,0.3L22.7,73.6C22.6,73.6,22.5,73.7,22.4,73.7L22.4,73.7z M12,49l10.4,23.8l11.8-25
					L12,49z"/>
			</g>
			<g>
				<path class="st0" d="M22.3,74.2c-0.1,0-0.2,0-0.2-0.1C22,74,22,73.9,22,73.9l0.2-0.5c0-0.1,0.1-0.2,0.2-0.2
					c0.1,0,0.2,0.1,0.2,0.1l0.2,0.5c0,0.1,0,0.2,0,0.2c0,0.1-0.1,0.1-0.2,0.1L22.3,74.2L22.3,74.2z"/>
			</g>
			<g>
				<path class="st0" d="M34.4,72.8C34.3,72.8,34.3,72.8,34.4,72.8c-0.2-0.1-0.2-0.1-0.2-0.2c-0.2-0.6-0.3-1.3-0.5-2
					c0-0.1,0.1-0.3,0.2-0.3l11.5-2.7c0.1,0,0.3,0,0.3,0.2c0,0.1,0,0.3-0.1,0.3l-11.1,4.8C34.5,72.8,34.4,72.8,34.4,72.8z M34.2,70.8
					c0.1,0.5,0.2,0.9,0.3,1.4l7.9-3.4L34.2,70.8z"/>
			</g>
			<g>
				<path class="st0" d="M22.6,74.2c-0.1,0-0.2-0.1-0.2-0.1l-0.2-0.5c0-0.1,0-0.2,0-0.2c0-0.1,0.1-0.1,0.2-0.1l7.7-1.9
					c0.1,0,0.3,0,0.3,0.2c0,0.1,0,0.3-0.1,0.3c-2.3,1.2-4.7,2-7.3,2.3L22.6,74.2C22.7,74.2,22.7,74.2,22.6,74.2z M27.6,72.5
					l-4.8,1.2h0.1C24.5,73.4,26.1,73,27.6,72.5z"/>
			</g>
			<g>
				<path class="st0" d="M22.4,73.7c-0.1,0-0.1,0-0.2-0.1c-0.1-0.1-0.1-0.2,0-0.3l12.2-25.9c0-0.1,0.1-0.1,0.2-0.1s0.2,0.1,0.2,0.1
					l10.8,20.3c0,0.1,0,0.2,0,0.2c0,0.1-0.1,0.1-0.2,0.1l-11.6,2.8c-0.1,0-0.1,0-0.2,0s-0.1-0.1-0.1-0.2c-0.1-0.4-0.1-0.8-0.2-1.1
					c-1,0.8-2.1,1.6-3.2,2.2c0,0,0,0-0.1,0L22.4,73.7C22.5,73.7,22.4,73.7,22.4,73.7z M34.7,48.1l-11.8,25l7.1-1.7
					c1.2-0.7,2.4-1.5,3.5-2.4c0.1-0.1,0.2-0.1,0.3,0c0.1,0,0.2,0.1,0.2,0.2c0,0.4,0.1,0.8,0.2,1.3l11-2.7L34.7,48.1z"/>
			</g>
			<g>
				<path class="st0" d="M63.3,16.5L63.3,16.5l-5.7-3.7c-0.1,0-0.1-0.1-0.1-0.2c0-0.1,0-0.1,0.1-0.2l9-10.5c0.1-0.1,0.2-0.1,0.3-0.1
					H67l0,0c0.8-0.4,1.7-0.7,2.6-0.9c0.1,0,0.2,0,0.3,0.1c0.1,0.1,0.1,0.2,0,0.3l-6.3,15.1C63.5,16.4,63.4,16.5,63.3,16.5L63.3,16.5
					z M58,12.5l5.1,3.4l6-14.3C68.4,1.8,67.6,2,67,2.4c-0.1,0-0.2,0-0.2,0l0,0L58,12.5z"/>
			</g>
			<g>
				<path class="st0" d="M57.6,12.8C57.6,12.8,57.5,12.8,57.6,12.8c-0.2-0.1-0.2-0.3-0.2-0.4l7.7-11c0.1-0.1,0.2-0.1,0.3-0.1
					c0.4,0.1,0.8,0.3,1.3,0.5c0.1,0,0.1,0.1,0.1,0.2c0,0.1,0,0.2-0.1,0.2l-9,10.5C57.8,12.8,57.7,12.8,57.6,12.8z M65.5,1.8L61,8.2
					l5.2-6.1C66,2,65.7,1.9,65.5,1.8z"/>
			</g>
			<g>
				<path class="st0" d="M110.9,18.9L110.9,18.9l-5.5-2.3c-0.1,0-0.1-0.1-0.1-0.2c0-0.1,0-0.1,0-0.2l1-2c0.1-0.1,0.2-0.2,0.3-0.1
					c2,0.8,3.7,2.4,4.6,4.4c0,0.1,0,0.2-0.1,0.3C111.1,18.9,111,18.9,110.9,18.9z M105.8,16.2l4.6,1.9c-0.8-1.5-2.2-2.7-3.8-3.4
					L105.8,16.2z"/>
			</g>
			<g>
				<path class="st0" d="M122.1,35.6c-0.1,0-0.1,0-0.2-0.1l-16.6-19c-0.1-0.1-0.1-0.2,0-0.3s0.2-0.1,0.3-0.1l5.5,2.3
					c0.1,0,0.1,0.1,0.1,0.1c0.2,0.4,0.3,0.9,0.4,1.3c3.2,1.5,5.4,4.6,5.8,8.1c0,0.3,0.1,0.5,0.1,0.8c2.5,1.4,4.3,3.8,4.9,6.6
					c0,0.1,0,0.2-0.1,0.3C122.2,35.6,122.2,35.6,122.1,35.6z M106.4,17l15.1,17.2c-0.8-2.2-2.4-4.1-4.4-5.2c-0.1,0-0.1-0.1-0.1-0.2
					c0-0.3,0-0.6-0.1-0.9c-0.4-3.4-2.5-6.3-5.6-7.7c-0.1,0-0.1-0.1-0.1-0.2c-0.1-0.4-0.2-0.8-0.4-1.2L106.4,17z"/>
			</g>
			<g>
				<path class="st0" d="M8.5,70.1C8.4,70.1,8.4,70.1,8.5,70.1C6.2,68.3,4.3,66,3,63.5c-0.1-0.1,0-0.2,0.1-0.3
					c0.1-0.1,0.2-0.1,0.3,0l6.4,4.2c0.1,0.1,0.1,0.2,0.1,0.3l-1.1,2.2C8.7,70,8.6,70.1,8.5,70.1L8.5,70.1z M3.9,64.2
					c1.2,2,2.7,3.8,4.5,5.2l0.8-1.7L3.9,64.2z"/>
			</g>
			<g>
				<path class="st0" d="M9.6,67.9L9.6,67.9L3,63.6l-0.1-0.1c-1.1-2-1.8-4.2-2.1-6.5c0-0.1,0-0.2,0.2-0.3c0.1,0,0.2,0,0.3,0.1
					l8.5,10.6c0.1,0.1,0.1,0.2,0,0.3C9.7,67.9,9.6,67.9,9.6,67.9z M3.4,63.2l5,3.3l-6.8-8.6C1.9,59.8,2.5,61.6,3.4,63.2z"/>
			</g>
			<g>
				<path class="st0" d="M92,25.2C92,25.2,91.9,25.2,92,25.2c-0.2-0.2-0.2-0.3-0.2-0.4L95,14.4c0-0.1,0.2-0.2,0.3-0.2l10.3,1.9
					c0.1,0,0.2,0.1,0.2,0.2c0,0.1,0,0.2-0.1,0.3l-13.4,8.5C92.1,25.2,92.1,25.2,92,25.2z M95.4,14.8l-2.9,9.5l12.3-7.8L95.4,14.8z"
					/>
			</g>
			<g>
				<path class="st0" d="M95.2,14.7L95.2,14.7c-0.2,0-0.2-0.1-0.2-0.2l-0.8-7.2c0-0.1,0.1-0.2,0.2-0.3c0.1,0,0.2,0,0.3,0.1l0,0
					c3.2,0.1,6.1,2,7.3,5c0,0.1,0,0.1,0,0.2c0,0.1-0.1,0.1-0.2,0.1l-6.5,2.2C95.2,14.7,95.2,14.7,95.2,14.7z M94.7,7.7l0.8,6.4
					l5.9-2C100.1,9.5,97.6,7.8,94.7,7.7z"/>
			</g>
			<g>
				<path class="st0" d="M105.5,16.6C105.4,16.6,105.4,16.6,105.5,16.6l-10.3-1.9c-0.1,0-0.2-0.1-0.2-0.3c0-0.1,0.1-0.2,0.3-0.2
					l10.6-0.3h0.1c0.3,0.1,0.5,0.2,0.8,0.3c0.1,0,0.1,0.1,0.2,0.2c0,0.1,0,0.1,0,0.2l-1,2C105.7,16.6,105.6,16.6,105.5,16.6z
					 M97.6,14.7l7.7,1.4l0.8-1.5c-0.1,0-0.3-0.1-0.4-0.1L97.6,14.7z"/>
			</g>
			<g>
				<path class="st0" d="M95.2,14.7c-0.1,0-0.2-0.1-0.2-0.2c0-0.1,0-0.3,0.2-0.3l6.5-2.2c0.1,0,0.3,0,0.3,0.1c0.2,0.5,0.4,1,0.5,1.6
					c0.1,0,0.2,0,0.4-0.1c1-0.1,2.1,0,3,0.2c0.1,0,0.2,0.2,0.2,0.3s-0.1,0.2-0.3,0.2L95.2,14.7L95.2,14.7z M101.5,12.6l-4.6,1.6
					l5-0.2C101.9,13.5,101.7,13,101.5,12.6z"/>
			</g>
			<g>
				<path class="st0" d="M63.3,16.5c-0.1,0-0.1,0-0.2-0.1s-0.1-0.2,0-0.3L69.4,1c0-0.1,0.1-0.1,0.2-0.2c0.4-0.1,0.7-0.1,1-0.2
					c2.5-0.3,4.9,0.2,7.1,1.4c0,0,0.1,0,0.1,0.1l10.6,11.3c0.1,0.1,0.1,0.2,0.1,0.3s-0.1,0.2-0.2,0.2L63.3,16.5L63.3,16.5z
					 M69.7,1.4l-6,14.5l23.9-2.5L77.4,2.6C75.3,1.5,73,1,70.6,1.3C70.3,1.3,70,1.4,69.7,1.4z"/>
			</g>
			<g>
				<path class="st0" d="M80.1,24.5C80.1,24.5,80,24.4,80.1,24.5l-16.9-8c-0.1-0.1-0.2-0.2-0.1-0.3c0-0.1,0.1-0.2,0.2-0.2l24.8-2.6
					c0.1,0,0.2,0,0.3,0.1c0.1,0.1,0,0.2,0,0.3l-8,10.5C80.3,24.4,80.2,24.5,80.1,24.5z M64.2,16.4L80,23.8l7.5-9.9L64.2,16.4z"/>
			</g>
			<g>
				<path class="st0" d="M88.1,13.9c-0.1,0-0.1,0-0.2-0.1L77.3,2.6c-0.1-0.1-0.1-0.2-0.1-0.2c0-0.1,0.1-0.2,0.2-0.2
					C78,2,78.6,1.9,79.1,1.8C80.9,1.6,82.8,2,84.3,3l0,0c1.6-0.2,3.1,0.1,4.5,0.8c0.1,0,0.2,0.1,0.1,0.3l-0.8,9.7
					c0,0.1-0.1,0.2-0.2,0.2C88.2,13.9,88.1,13.9,88.1,13.9z M78,2.5l9.9,10.6l0.7-9c-1.3-0.6-2.7-0.8-4.1-0.7h-0.1
					c-0.1,0-0.1,0-0.2,0c-1.5-0.9-3.3-1.4-5-1.1C78.8,2.3,78.4,2.4,78,2.5z"/>
			</g>
			<g>
				<path class="st0" d="M80.1,24.5c-0.1,0-0.2-0.1-0.2-0.2c0-0.1,0-0.2,0-0.3l8-10.5c0.1-0.1,0.1-0.1,0.2-0.1s0.2,0.1,0.2,0.2
					l3.9,11.2c0,0.1,0,0.2,0,0.2c-0.1,0.1-0.1,0.1-0.2,0.1L80.1,24.5L80.1,24.5z M88,14.2l-7.4,9.7l11,0.7L88,14.2z"/>
			</g>
			<g>
				<path class="st0" d="M92,25.2c-0.1,0-0.2-0.1-0.2-0.2l-3.9-11.2c0-0.1,0-0.2,0-0.2c0.1-0.1,0.1-0.1,0.2-0.1l7.1,0.8
					c0.1,0,0.1,0.1,0.2,0.1c0,0.1,0.1,0.1,0,0.2L92.2,25C92.3,25.1,92.2,25.2,92,25.2L92,25.2z M88.5,14L92,24.1l2.8-9.4L88.5,14z"
					/>
			</g>
			<g>
				<path class="st0" d="M95.2,14.7L95.2,14.7l-7.1-0.8c-0.1,0-0.2-0.1-0.2-0.3l0.8-9.7c0-0.1,0.1-0.2,0.1-0.2c0.1,0,0.2,0,0.2,0
					c0.3,0.1,0.5,0.3,0.7,0.4c1.9,0.4,3.6,1.5,4.9,3c0,0,0,0.1,0.1,0.1l0.8,7.2c0,0.1,0,0.2-0.1,0.2C95.3,14.7,95.3,14.7,95.2,14.7z
					 M88.4,13.5l6.5,0.7l-0.8-6.8C93,5.9,91.3,5,89.6,4.6h-0.1c-0.1-0.1-0.2-0.1-0.4-0.2L88.4,13.5z"/>
			</g>
			<g>
				<path class="st0" d="M88.5,104.1c-0.1,0-0.2-0.1-0.2-0.2c-1-3.1-2.2-5.9-3.5-8.4c-1.9-1.3-3.4-3.1-4.4-5.1c0-0.1,0-0.1,0-0.2
					l4.2-16.3c0-0.1,0.1-0.2,0.2-0.2s0.2,0,0.3,0.1l13.7,26.5v0.1v0.3c0,0.1-0.1,0.2-0.2,0.2L88.5,104.1L88.5,104.1z M80.8,90.2
					c1,1.9,2.4,3.6,4.2,4.9l0.1,0.1c1.4,2.5,2.6,5.3,3.5,8.3l9.6-2.9v-0.1L84.8,74.7L80.8,90.2z"/>
			</g>
			<g>
				<path class="st0" d="M91.5,124.7c-0.1,0-0.1,0-0.2-0.1l-0.1-0.1c0,0-0.1-0.1-0.1-0.2c-0.1-7.6-1-14.5-2.9-20.5
					c0-0.1,0-0.1,0-0.2c0-0.1,0.1-0.1,0.2-0.1l10-3c0.1,0,0.2,0,0.2,0c0.1,0.1,0.1,0.1,0.1,0.2c0,0.2,0,0.4,0,0.6l-6.9,23.1
					C91.7,124.6,91.7,124.7,91.5,124.7L91.5,124.7z M88.8,104c1.7,5.6,2.7,12,2.8,19l6.5-21.7c0-0.1,0-0.1,0-0.2L88.8,104z"/>
			</g>
			<g>
				<path class="st0" d="M98.5,100.7c-0.1,0-0.2-0.1-0.2-0.1L84.6,74.1c-0.1-0.1,0-0.3,0.1-0.3c0.1-0.1,0.3,0,0.3,0.1L101.1,96
					c0.1,0.1,0.1,0.2,0,0.3l-0.3,0.7c-0.1,0.1-0.2,0.2-0.3,0.1c-0.4-0.2-0.8-0.3-1.2-0.5c-0.2,1.2-0.4,2.5-0.5,3.9v0.1
					C98.8,100.6,98.6,100.7,98.5,100.7L98.5,100.7z M86.6,76.9l11.7,22.6c0.1-1.2,0.3-2.4,0.5-3.4c0-0.1,0.1-0.2,0.1-0.2
					c0.1,0,0.2,0,0.2,0c0.4,0.2,0.8,0.4,1.2,0.5l0.2-0.3L86.6,76.9z"/>
			</g>
			<g>
				<path class="st0" d="M91.5,124.7c-0.1,0-0.1,0-0.2-0.1s-0.1-0.2-0.1-0.2l6.9-23c0-0.1,0.2-0.2,0.3-0.2c0.1,0,0.2,0.1,0.2,0.3
					c-0.5,8.4,0.7,17.3,1.5,21.9c0,0.1,0,0.1,0,0.2c0,0.1-0.1,0.1-0.2,0.1L91.5,124.7L91.5,124.7z M98.1,103.5l-6.2,20.6l7.7-1
					C98.9,118.8,97.8,111.1,98.1,103.5z"/>
			</g>
			<g>
				<path class="st0" d="M103.8,97.8L103.8,97.8c-1.2-0.1-2.3-0.3-3.4-0.7c-0.1,0-0.1-0.1-0.2-0.1c0-0.1,0-0.1,0-0.2l0.3-0.7
					c0-0.1,0.1-0.2,0.3-0.1l0,0l8.5,0.7c0.1,0,0.2,0.1,0.2,0.2c0,0.1-0.1,0.2-0.2,0.3c-0.9,0.3-1.9,0.6-2.9,0.7
					C105.6,97.8,104.7,97.8,103.8,97.8z M100.9,96.6c1,0.3,2,0.5,3,0.6l0,0c0.8,0.1,1.7,0.1,2.5,0c0.5-0.1,1-0.1,1.5-0.3l-6.9-0.6
					L100.9,96.6z"/>
			</g>
			<g>
				<path class="st0" d="M40,82.1c-0.1,0-0.1,0-0.2-0.1c-1-1-2-2.1-2.8-3.3c-0.1-0.1-0.1-0.2,0-0.3c0.1-0.1,0.2-0.1,0.3-0.1l7,0.9
					c0.1,0,0.2,0.1,0.2,0.2s0,0.2-0.1,0.3l-4.2,2.4C40.1,82.1,40.1,82.1,40,82.1z M37.8,79c0.7,0.9,1.4,1.8,2.3,2.6l3.3-1.9L37.8,79
					z"/>
			</g>
			<g>
				<path class="st0" d="M48.6,87.1C48.5,87.1,48.5,87.1,48.6,87.1c-3.3-1-6.2-2.7-8.7-5c-0.1-0.1-0.1-0.1-0.1-0.2s0.1-0.2,0.1-0.2
					l4.2-2.4c0.1-0.1,0.3,0,0.4,0.1l4.3,7.3c0.1,0.1,0,0.2,0,0.3C48.7,87,48.7,87.1,48.6,87.1z M40.5,81.9c2.2,2,4.7,3.5,7.5,4.4
					l-3.9-6.5L40.5,81.9z"/>
			</g>
			<g>
				<path class="st0" d="M92.3,73C92.2,73,92.2,73,92.3,73c-0.1,0-0.2-0.1-0.2-0.2L84,48.3c0-0.1,0-0.2,0.1-0.3
					c0.1-0.1,0.2-0.1,0.3,0l24.8,10.6c0.1,0,0.1,0.1,0.2,0.2c0,0.1,0,0.2-0.1,0.2L92.6,73C92.4,73,92.3,73,92.3,73z M84.6,48.7
					l7.8,23.6l16.1-13.4L84.6,48.7z"/>
			</g>
			<g>
				<path class="st0" d="M109,59C108.9,59,108.9,59,109,59L84.2,48.4c-0.1,0-0.2-0.2-0.2-0.3c0-0.1,0.1-0.2,0.2-0.2l18-4.1
					c0.1,0,0.2,0,0.3,0.1l6.7,14.6c0,0.1,0,0.2-0.1,0.3C109.1,59,109,59,109,59z M85.1,48.3l23.4,10l-6.4-13.8L85.1,48.3z"/>
			</g>
			<g>
				<path class="st0" d="M100.3,75.5L100.3,75.5L92.2,73c-0.1,0-0.2-0.1-0.2-0.2s0-0.2,0.1-0.3l16.7-14c0.1-0.1,0.2-0.1,0.3,0
					s0.1,0.2,0.1,0.3l-8.6,16.4C100.5,75.4,100.4,75.5,100.3,75.5z M92.8,72.6l7.4,2.3l7.9-15.1L92.8,72.6z"/>
			</g>
			<g>
				<path class="st0" d="M100.3,75.5c-0.1,0-0.1,0-0.2-0.1c-0.1-0.1-0.1-0.2,0-0.3l8.6-16.4c0.1-0.1,0.2-0.2,0.3-0.1
					c0.1,0,0.2,0.1,0.2,0.3l0.1,12.2c0,0.1-0.1,0.2-0.1,0.2l-8.7,4.3C100.4,75.5,100.4,75.5,100.3,75.5z M108.7,59.8l-7.8,14.8
					l7.9-3.8L108.7,59.8z"/>
			</g>
			<g>
				<path class="st0" d="M109,59c-0.1,0-0.2-0.1-0.2-0.2l-6.7-14.6c0-0.1,0-0.2,0-0.3l3.3-4c0.1-0.1,0.2-0.1,0.3-0.1
					s0.2,0.1,0.2,0.2l3.5,18.6c0,0.1-0.1,0.3-0.2,0.3C109,59,109,59,109,59z M102.5,44.2l5.8,12.6l-3-16L102.5,44.2z"/>
			</g>
			<g>
				<path class="st0" d="M109,59C108.9,59,108.9,59,109,59c-0.2-0.1-0.2-0.1-0.2-0.2l-3.5-18.6c0-0.1,0-0.2,0.1-0.2
					c0.1-0.1,0.2-0.1,0.3,0l19.5,7.4c0.1,0,0.2,0.1,0.2,0.2s0,0.2-0.1,0.2l-16.1,11.1C109.1,59,109,59,109,59z M105.9,40.6l3.3,17.7
					l15.3-10.6L105.9,40.6z"/>
			</g>
			<g>
				<path class="st0" d="M109.1,71.2c-0.1,0-0.2-0.1-0.2-0.3l-0.1-12.2c0-0.1,0.1-0.2,0.2-0.2c0.1,0,0.2,0,0.3,0l15,13
					c0.1,0.1,0.1,0.2,0.1,0.3c0,0.1-0.1,0.2-0.3,0.2L109.1,71.2L109.1,71.2z M109.2,59.4l0.1,11.3l13.9,0.8L109.2,59.4z"/>
			</g>
			<g>
				<path class="st0" d="M123.9,72.1c-0.1,0-0.1,0-0.2-0.1l-15-13c-0.1-0.1-0.1-0.1-0.1-0.2s0.1-0.2,0.1-0.2l17.5-9.7
					c0.1,0,0.2,0,0.3,0c0.1,0.1,0.1,0.1,0.1,0.2L125,63.4c0,0.1-0.1,0.1-0.1,0.2c-0.6,0.4-1.3,0.7-1.9,0.9c0.6,0.8,1.2,1.6,1.6,2.5
					v0.1l-0.5,4.7C124.1,71.9,124,72,123.9,72.1C124,72,124,72.1,123.9,72.1z M109.4,58.8l14.3,12.4l0.5-4.1c-0.5-1-1.1-1.8-1.8-2.6
					c-0.1-0.1-0.1-0.2-0.1-0.3c0-0.1,0.1-0.2,0.2-0.2c0.7-0.2,1.4-0.4,2.1-0.8l1.5-13.7L109.4,58.8z"/>
			</g>
			<g>
				<path class="st0" d="M109,59c-0.1,0-0.2,0-0.2-0.1c-0.1-0.1,0-0.3,0.1-0.4L125,47.4c0.1-0.1,0.2-0.1,0.3,0l1.5,1.5
					c0.1,0.1,0.1,0.1,0.1,0.2s-0.1,0.2-0.1,0.2L109.3,59C109.1,59,109,59,109,59z M125,48l-11.6,8.1l12.7-7L125,48z"/>
			</g>
			<g>
				<path class="st0" d="M124.9,63.7h-0.1c-0.1-0.1-0.1-0.1-0.1-0.3l1.6-14.3c0-0.1,0.1-0.2,0.2-0.2l1.1-0.4c0.1,0,0.3,0,0.3,0.1
					c0.3,0.7,0.5,1.3,0.6,2c0.2,1.4-0.1,2.8-0.7,4c0.3,0.7,0.5,1.4,0.6,2.2c0.3,2.7-1,5.4-3.3,6.9C125,63.7,124.9,63.7,124.9,63.7z
					 M126.7,49.3l-1.5,13.6c1.9-1.4,2.9-3.7,2.6-6.1c-0.1-0.7-0.3-1.4-0.6-2.1c0-0.1,0-0.2,0-0.2c0.6-1.2,0.8-2.5,0.7-3.8
					c-0.1-0.6-0.2-1.1-0.4-1.7L126.7,49.3z"/>
			</g>
			<g>
				<path class="st0" d="M123.9,72.1C123.9,72.1,123.9,72,123.9,72.1c-0.2-0.1-0.3-0.2-0.2-0.3l0.5-4.7c0-0.1,0.1-0.2,0.2-0.2
					c0.1,0,0.2,0,0.3,0.1l0.1,0.2c0.3,0.7,0.6,1.5,0.9,2.3c0,0.1,0,0.1,0,0.2l-1.5,2.3C124.1,72,124,72.1,123.9,72.1z M124.6,68.1
					l-0.3,2.6l0.8-1.2C125,69,124.8,68.5,124.6,68.1z"/>
			</g>
			<g>
				<path class="st0" d="M125.4,77c-0.1,0-0.2-0.1-0.2-0.2l-1.4-5c0-0.1,0-0.1,0-0.2l1.5-2.3c0.1-0.1,0.2-0.1,0.3-0.1
					s0.2,0.1,0.2,0.2c0.7,2.4,0.7,5,0,7.4C125.6,77,125.5,77,125.4,77L125.4,77z M124.2,71.8l1.1,3.9c0.4-1.9,0.4-3.8-0.1-5.6
					L124.2,71.8z"/>
			</g>
			<g>
				<path class="st0" d="M126.5,49.4c-0.1,0-0.2-0.1-0.2-0.2c-0.1-0.1,0-0.3,0.1-0.3l1-0.6c0.1,0,0.1,0,0.2,0c0.1,0,0.1,0.1,0.2,0.1
					v0.1c0,0.1,0,0.2,0,0.2c0,0.1-0.1,0.1-0.1,0.2l-1.1,0.4C126.6,49.4,126.5,49.4,126.5,49.4z"/>
			</g>
			<g>
				<path class="st0" d="M25.8,14.2c-0.1,0-0.2-0.1-0.2-0.2c0-0.1,0-0.3,0.2-0.3l0.2-0.1c0.1,0,0.2-0.1,0.2-0.1
					c0.6-0.8,1.3-1.5,2.1-2.2c0.1-0.1,0.2-0.1,0.2-0.1l3.8,1c0.1,0,0.2,0.1,0.2,0.3c0,0.1-0.1,0.2-0.2,0.2L25.8,14.2L25.8,14.2z
					 M28.5,11.9c-0.6,0.5-1.1,1-1.6,1.6l4.1-0.9L28.5,11.9z"/>
			</g>
			<g>
				<path class="st0" d="M17.4,19.5c-0.1,0-0.1,0-0.2-0.1c-0.1-0.1-0.1-0.2,0-0.3c2.3-2.5,5.3-4.3,8.5-5.3l6.4-1.4
					c0.1,0,0.3,0,0.3,0.2c0,0.1,0,0.3-0.1,0.3l-14.8,6.7C17.5,19.5,17.5,19.5,17.4,19.5z M29.8,13.4l-4,0.9
					c-2.7,0.8-5.1,2.3-7.2,4.2L29.8,13.4z"/>
			</g>
		</g>
		<g>
			<path class="st0" d="M52.5,30.9c-0.1,1-1,1.8-2,1.7c-1-0.1-1.8-1-1.7-2c0.1-1,1-1.8,2-1.7C51.8,29,52.6,29.9,52.5,30.9z"/>
			<path class="st0" d="M50.5,33.1c-1.3-0.1-2.3-1.2-2.1-2.5c0.1-1.3,1.2-2.3,2.5-2.2s2.3,1.2,2.2,2.5
				C52.9,32.2,51.8,33.2,50.5,33.1z M50.8,29.4c-0.7,0-1.4,0.5-1.4,1.2c-0.1,0.7,0.5,1.3,1.2,1.4s1.3-0.5,1.4-1.2
				C52,30.1,51.5,29.5,50.8,29.4z"/>
		</g>
		<g>
			<path class="st0" d="M65.1,16.4c-0.1,1-1,1.8-2,1.7s-1.8-1-1.7-2c0.1-1,1-1.8,2-1.7C64.4,14.5,65.2,15.4,65.1,16.4z"/>
			<path class="st0" d="M63.1,18.6c-1.3-0.1-2.3-1.2-2.2-2.5c0.1-1.3,1.2-2.3,2.5-2.2s2.3,1.2,2.2,2.5
				C65.5,17.7,64.4,18.7,63.1,18.6z M63.4,15c-0.7-0.1-1.3,0.5-1.4,1.2c-0.1,0.7,0.5,1.3,1.2,1.4c0.7,0.1,1.3-0.5,1.4-1.2
				C64.6,15.7,64.1,15,63.4,15z"/>
		</g>
		<g>
			<path class="st0" d="M59,12.9c-0.1,0.6-0.6,1.1-1.3,1.1c-0.6-0.1-1.1-0.6-1.1-1.3c0.1-0.6,0.6-1.1,1.3-1.1
				C58.6,11.7,59.1,12.3,59,12.9z"/>
			<path class="st0" d="M57.7,14.5c-0.9-0.1-1.6-0.9-1.6-1.8c0.1-0.9,0.9-1.6,1.8-1.6c0.9,0.1,1.6,0.9,1.6,1.8
				C59.5,13.9,58.6,14.6,57.7,14.5z M57.9,12.2c-0.4,0-0.7,0.2-0.7,0.6c0,0.4,0.2,0.7,0.6,0.7s0.7-0.2,0.7-0.6S58.3,12.2,57.9,12.2z
				"/>
		</g>
		<g>
			<path class="st0" d="M96.6,14.5c-0.1,0.8-0.8,1.4-1.5,1.3c-0.8-0.1-1.4-0.8-1.3-1.5c0.1-0.8,0.8-1.4,1.5-1.3
				C96.1,13,96.7,13.7,96.6,14.5z"/>
			<path class="st0" d="M95,16.4c-1.1-0.1-1.9-1-1.8-2.1s1-1.9,2.1-1.8c1.1,0.1,1.9,1,1.8,2.1C97,15.6,96.1,16.4,95,16.4z
				 M95.2,13.5c-0.5,0-0.9,0.3-1,0.8c0,0.5,0.3,0.9,0.8,1c0.5,0,0.9-0.3,1-0.8C96.1,14,95.7,13.5,95.2,13.5z"/>
		</g>
		<g>
			<path class="st0" d="M90,13.8c-0.1,1-1,1.8-2,1.7s-1.8-1-1.7-2c0.1-1,1-1.8,2-1.7S90,12.8,90,13.8z"/>
			<path class="st0" d="M87.9,16c-1.3-0.1-2.3-1.2-2.2-2.5c0.1-1.3,1.2-2.3,2.5-2.2s2.3,1.2,2.2,2.5C90.4,15.2,89.2,16.1,87.9,16z
				 M88.2,12.4c-0.7-0.1-1.3,0.5-1.4,1.2s0.5,1.3,1.2,1.4c0.7,0.1,1.3-0.5,1.4-1.2S89,12.4,88.2,12.4z"/>
		</g>
		<g>
			<path class="st0" d="M81.9,24.3c-0.1,1-1,1.8-2,1.7s-1.8-1-1.7-2c0.1-1,1-1.8,2-1.7C81.3,22.5,82,23.3,81.9,24.3z"/>
			<path class="st0" d="M79.9,26.5c-1.3-0.1-2.3-1.2-2.2-2.5c0.1-1.3,1.2-2.3,2.5-2.2s2.3,1.2,2.2,2.5
				C82.3,25.7,81.2,26.6,79.9,26.5z M80.2,22.9c-0.7-0.1-1.3,0.5-1.4,1.2s0.5,1.3,1.2,1.4c0.7,0.1,1.3-0.5,1.4-1.2
				S80.9,23,80.2,22.9z"/>
		</g>
		<g>
			<path class="st0" d="M86,47.9c-0.1,1-1,1.8-2,1.7c-1-0.1-1.8-1-1.7-2c0.1-1,1-1.8,2-1.7C85.4,46,86.1,46.8,86,47.9z"/>
			<path class="st0" d="M84,50c-1.3-0.1-2.3-1.2-2.2-2.5c0.1-1.3,1.2-2.3,2.5-2.2c1.3,0.1,2.3,1.2,2.2,2.5
				C86.4,49.2,85.3,50.2,84,50z M84.3,46.4c-0.7-0.1-1.3,0.5-1.4,1.2s0.5,1.3,1.2,1.4s1.3-0.5,1.4-1.2C85.6,47.1,85,46.5,84.3,46.4z
				"/>
		</g>
		<g>
			<path class="st0" d="M110.5,58.7c-0.1,1-1,1.8-2,1.7c-1-0.1-1.8-1-1.7-2s1-1.8,2-1.7C109.9,56.9,110.6,57.7,110.5,58.7z"/>
			<path class="st0" d="M108.5,60.9c-1.3-0.1-2.3-1.2-2.2-2.5s1.2-2.3,2.5-2.2c1.3,0.1,2.3,1.2,2.1,2.5
				C111,60.1,109.8,61,108.5,60.9z M108.8,57.3c-0.7-0.1-1.3,0.5-1.4,1.2c-0.1,0.7,0.5,1.3,1.2,1.4s1.3-0.5,1.4-1.2
				C110.1,58,109.5,57.4,108.8,57.3z"/>
		</g>
		<g>
			<path class="st0" d="M107.3,40.7c-0.1,1-1,1.8-2,1.7c-1-0.1-1.8-1-1.7-2s1-1.8,2-1.7C106.7,38.8,107.4,39.7,107.3,40.7z"/>
			<path class="st0" d="M105.3,42.9c-1.3-0.1-2.3-1.2-2.2-2.5s1.2-2.3,2.5-2.2c1.3,0.1,2.3,1.2,2.2,2.5
				C107.8,42,106.6,43,105.3,42.9z M105.6,39.2c-0.7-0.1-1.3,0.5-1.4,1.2c-0.1,0.7,0.5,1.3,1.2,1.4s1.3-0.5,1.4-1.2
				C106.9,39.9,106.3,39.3,105.6,39.2z"/>
		</g>
		<g>
			<path class="st0" d="M68.6,41c-0.1,1-1,1.8-2,1.7c-1-0.1-1.8-1-1.7-2c0.1-1,1-1.8,2-1.7C68,39.1,68.7,40,68.6,41z"/>
			<path class="st0" d="M66.6,43.2c-1.3-0.1-2.3-1.2-2.2-2.5c0.1-1.3,1.2-2.3,2.5-2.2c1.3,0.1,2.3,1.2,2.2,2.5
				C69,42.3,67.9,43.3,66.6,43.2z M66.9,39.5c-0.7-0.1-1.3,0.5-1.4,1.2s0.5,1.3,1.2,1.4s1.3-0.5,1.4-1.2
				C68.2,40.2,67.6,39.6,66.9,39.5z"/>
		</g>
		<g>
			<path class="st0" d="M94,25.1c-0.1,1-1,1.8-2,1.7s-1.8-1-1.7-2c0.1-1,1-1.8,2-1.7S94.1,24.1,94,25.1z"/>
			<path class="st0" d="M92,27.3c-1.3-0.1-2.3-1.2-2.2-2.5c0.1-1.3,1.2-2.3,2.5-2.2s2.3,1.2,2.2,2.5C94.4,26.4,93.3,27.4,92,27.3z
				 M92.3,23.7c-0.7-0.1-1.3,0.5-1.4,1.2s0.5,1.3,1.2,1.4c0.7,0.1,1.3-0.5,1.4-1.2C93.5,24.3,93,23.7,92.3,23.7z"/>
		</g>
		<g>
			<path class="st0" d="M107.2,16.8c-0.1,0.9-0.8,1.5-1.7,1.4s-1.5-0.8-1.4-1.7c0.1-0.9,0.8-1.5,1.7-1.4
				C106.6,15.2,107.3,16,107.2,16.8z"/>
			<path class="st0" d="M105.5,18.8c-1.1-0.1-2-1.1-1.9-2.2c0.1-1.1,1.1-2,2.2-1.9c1.1,0.1,2,1.1,1.9,2.3
				C107.6,18,106.6,18.9,105.5,18.8z M105.7,15.6c-0.6,0-1.1,0.4-1.1,1s0.4,1.1,1,1.1s1.1-0.4,1.1-1
				C106.7,16.2,106.3,15.7,105.7,15.6z"/>
		</g>
		<g>
			<path class="st0" d="M52.3,6.8c-0.1,1-1,1.8-2,1.7s-1.8-1-1.7-2c0.1-1,1-1.8,2-1.7C51.6,4.9,52.4,5.8,52.3,6.8z"/>
			<path class="st0" d="M50.3,9C49,8.9,48,7.8,48.1,6.5c0.1-1.3,1.2-2.3,2.5-2.2s2.3,1.2,2.2,2.5C52.7,8.1,51.6,9.1,50.3,9z
				 M50.6,5.3c-0.7-0.1-1.3,0.5-1.4,1.2s0.5,1.3,1.2,1.4c0.7,0.1,1.3-0.5,1.4-1.2C51.8,6,51.3,5.4,50.6,5.3z"/>
		</g>
		<g>
			<path class="st0" d="M57.5,24.5c-0.1,1-1,1.8-2,1.7s-1.8-1-1.7-2c0.1-1,1-1.8,2-1.7C56.9,22.6,57.6,23.5,57.5,24.5z"/>
			<path class="st0" d="M55.5,26.7c-1.3-0.1-2.3-1.2-2.2-2.5c0.1-1.3,1.2-2.3,2.5-2.2s2.3,1.2,2.2,2.5
				C57.9,25.8,56.8,26.8,55.5,26.7z M55.8,23.1c-0.7-0.1-1.3,0.5-1.4,1.2s0.5,1.3,1.2,1.4c0.7,0.1,1.3-0.5,1.4-1.2
				C57.1,23.7,56.5,23.1,55.8,23.1z"/>
		</g>
		<g>
			<path class="st0" d="M94.1,72.9c-0.1,1-1,1.8-2,1.7c-1-0.1-1.8-1-1.7-2c0.1-1,1-1.8,2-1.7C93.4,71,94.2,71.9,94.1,72.9z"/>
			<path class="st0" d="M92.1,75.1c-1.3-0.1-2.3-1.2-2.2-2.5c0.1-1.3,1.2-2.3,2.5-2.2s2.3,1.2,2.2,2.5
				C94.5,74.2,93.4,75.2,92.1,75.1z M92.4,71.4c-0.7-0.1-1.3,0.5-1.4,1.2s0.5,1.3,1.2,1.4s1.3-0.5,1.4-1.2
				C93.6,72.1,93.1,71.5,92.4,71.4z"/>
		</g>
		<g>
			<path class="st0" d="M81.7,74c-0.1,1-1,1.8-2,1.7c-1-0.1-1.8-1-1.7-2c0.1-1,1-1.8,2-1.7C81,72.1,81.8,73,81.7,74z"/>
			<path class="st0" d="M79.7,76.2c-1.3-0.1-2.3-1.2-2.2-2.5c0.1-1.3,1.2-2.3,2.5-2.2c1.3,0.1,2.3,1.2,2.2,2.5
				C82.1,75.3,81,76.3,79.7,76.2z M80,72.5c-0.7-0.1-1.3,0.5-1.4,1.2s0.5,1.3,1.2,1.4s1.3-0.5,1.4-1.2C81.2,73.2,80.7,72.6,80,72.5z
				"/>
		</g>
		<g>
			<path class="st0" d="M58.4,76.9c-0.1,1-1,1.8-2,1.7c-1-0.1-1.8-1-1.7-2c0.1-1,1-1.8,2-1.7C57.7,75,58.5,75.9,58.4,76.9z"/>
			<path class="st0" d="M56.4,79.1c-1.3-0.1-2.3-1.2-2.2-2.5c0.1-1.3,1.2-2.3,2.5-2.2c1.3,0.1,2.3,1.2,2.2,2.5
				C58.8,78.2,57.7,79.2,56.4,79.1z M56.7,75.5c-0.7-0.1-1.3,0.5-1.4,1.2s0.5,1.3,1.2,1.4s1.3-0.5,1.4-1.2
				C57.9,76.1,57.4,75.5,56.7,75.5z"/>
		</g>
		<g>
			<path class="st0" d="M111,71.1c-0.1,1-1,1.8-2,1.7c-1-0.1-1.8-1-1.7-2s1-1.8,2-1.7C110.3,69.2,111.1,70.1,111,71.1z"/>
			<path class="st0" d="M109,73.3c-1.3-0.1-2.3-1.2-2.2-2.5s1.2-2.3,2.5-2.2c1.3,0.1,2.3,1.2,2.2,2.5S110.3,73.4,109,73.3z
				 M109.3,69.6c-0.7-0.1-1.3,0.5-1.4,1.2c-0.1,0.7,0.5,1.3,1.2,1.4s1.3-0.5,1.4-1.2C110.5,70.3,110,69.7,109.3,69.6z"/>
		</g>
		<g>
			<path class="st0" d="M47.1,68.1c-0.1,1-1,1.8-2,1.7c-1-0.1-1.8-1-1.7-2c0.1-1,1-1.8,2-1.7C46.4,66.2,47.1,67.1,47.1,68.1z"/>
			<path class="st0" d="M45,70.3c-1.3-0.1-2.3-1.2-2.2-2.5c0.1-1.3,1.2-2.3,2.5-2.2c1.3,0.1,2.3,1.2,2.2,2.5
				C47.5,69.5,46.3,70.4,45,70.3z M45.3,66.7c-0.7-0.1-1.3,0.5-1.4,1.2s0.5,1.3,1.2,1.4s1.3-0.5,1.4-1.2S46.1,66.7,45.3,66.7z"/>
		</g>
		<g>
			<path class="st0" d="M53.8,61.5c-0.1,1-1,1.8-2,1.7c-1-0.1-1.8-1-1.7-2c0.1-1,1-1.8,2-1.7C53.2,59.6,53.9,60.5,53.8,61.5z"/>
			<path class="st0" d="M51.8,63.7c-1.3-0.1-2.3-1.2-2.2-2.5c0.1-1.3,1.2-2.3,2.5-2.2c1.3,0.1,2.3,1.2,2.2,2.5
				C54.3,62.8,53.1,63.8,51.8,63.7z M52.1,60c-0.7-0.1-1.3,0.5-1.4,1.2s0.5,1.3,1.2,1.4s1.3-0.5,1.4-1.2
				C53.4,60.7,52.9,60.1,52.1,60z"/>
		</g>
		<g>
			<path class="st0" d="M36.3,47.5c-0.1,1-1,1.8-2,1.7c-1-0.1-1.8-1-1.7-2s1-1.8,2-1.7C35.6,45.6,36.4,46.5,36.3,47.5z"/>
			<path class="st0" d="M34.3,49.7c-1.3-0.1-2.3-1.2-2.2-2.5c0.1-1.3,1.2-2.3,2.5-2.2c1.3,0.1,2.3,1.2,2.2,2.5
				C36.7,48.8,35.6,49.8,34.3,49.7z M34.6,46c-0.7-0.1-1.3,0.5-1.4,1.2c-0.1,0.7,0.5,1.4,1.2,1.4c0.7,0.1,1.3-0.5,1.4-1.2
				C35.8,46.7,35.3,46.1,34.6,46z"/>
		</g>
		<g>
			<path class="st0" d="M13.3,48.9c-0.1,1-1,1.8-2,1.7c-1-0.1-1.8-1-1.7-2s1-1.8,2-1.7C12.6,47,13.4,47.9,13.3,48.9z"/>
			<path class="st0" d="M11.3,51.1C10,51,9,49.9,9.1,48.6s1.2-2.3,2.5-2.2c1.3,0.1,2.3,1.2,2.2,2.5C13.7,50.3,12.6,51.2,11.3,51.1z
				 M11.6,47.5c-0.7-0.1-1.3,0.5-1.4,1.2c-0.1,0.7,0.5,1.3,1.2,1.4s1.3-0.5,1.4-1.2C12.9,48.2,12.3,47.5,11.6,47.5z"/>
		</g>
		<g>
			<path class="st0" d="M33.9,12.7c-0.1,1-1,1.8-2,1.7c-1-0.1-1.8-1-1.7-2s1-1.8,2-1.7C33.2,10.8,34,11.7,33.9,12.7z"/>
			<path class="st0" d="M31.9,14.9c-1.3-0.1-2.3-1.2-2.2-2.5s1.2-2.3,2.5-2.2c1.3,0.1,2.3,1.2,2.2,2.5C34.3,14.1,33.2,15,31.9,14.9z
				 M32.2,11.3c-0.7-0.1-1.3,0.5-1.4,1.2c-0.1,0.7,0.5,1.3,1.2,1.4c0.7,0.1,1.3-0.5,1.4-1.2C33.4,12,32.9,11.3,32.2,11.3z"/>
		</g>
	</g>
</g>
</svg>
